<svg xmlns="http://www.w3.org/2000/svg" version="1.1" xmlns:xlink="http://www.w3.org/1999/xlink" xmlns:svgjs="http://svgjs.dev/svgjs" width="1500" height="1500" viewBox="0 0 1500 1500"><rect width="1500" height="1500" fill="#ffffff"></rect><g transform="matrix(0.6666666666666666,0,0,0.6666666666666666,250,250.00063909009333)"><svg viewBox="0 0 280 280" data-background-color="#ffffff" preserveAspectRatio="xMidYMid meet" height="1500" width="1500" xmlns="http://www.w3.org/2000/svg" xmlns:xlink="http://www.w3.org/1999/xlink"><g id="tight-bounds" transform="matrix(1,0,0,1,0,0.00017894522613914887)"><svg viewBox="0 0 280 280" height="280" width="280"><g><svg viewBox="0 0 280 280" height="280" width="280"><g><svg viewBox="0 0 280 280" height="280" width="280"><g id="textblocktransform"><svg viewBox="0 0 280 280" height="280" width="280" id="textblock"><g><svg viewBox="0 0 280 280" height="280" width="280"><g transform="matrix(1,0,0,1,90.50252531694167,90.50252531694167)"><svg viewBox="0 0 98.99494936611666 98.99494936611666" height="98.99494936611666" width="98.99494936611666"><g id="icon-0"><svg xmlns="http://www.w3.org/2000/svg" xmlns:xlink="http://www.w3.org/1999/xlink" version="1.1" x="0" y="0" viewBox="0 0 100 100" enable-background="new 0 0 100 100" xml:space="preserve" height="98.99494936611666" width="98.99494936611666" class="icon-xg-0" data-fill-palette-color="accent" id="xg-0"><polygon fill-rule="evenodd" clip-rule="evenodd" points="42.023,38.316 41.349,37.191 40.562,34.943 41.124,34.27   40.786,32.697 38.764,34.27 39.214,35.619 39.775,37.752 38.764,37.752 38.764,38.763 39.888,39.438 " fill="#f56607" data-fill-palette-color="accent"></polygon><polygon fill-rule="evenodd" clip-rule="evenodd" points="35.955,36.741 36.293,38.316 37.978,37.529 38.426,36.18   37.753,35.507 " fill="#f56607" data-fill-palette-color="accent"></polygon><polygon fill-rule="evenodd" clip-rule="evenodd" points="38.09,27.866 38.426,26.967 37.529,26.068 35.73,25.957   35.843,27.303 " fill="#f56607" data-fill-palette-color="accent"></polygon><polygon fill-rule="evenodd" clip-rule="evenodd" points="50.338,18.989 50.899,19.212 51.011,18.316   50.338,17.978 50.785,16.855 48.764,17.978 49.55,19.662 " fill="#f56607" data-fill-palette-color="accent"></polygon><polygon fill-rule="evenodd" clip-rule="evenodd" points="55.28,15.73 54.158,15.169 53.37,15.957 54.831,16.18 " fill="#f56607" data-fill-palette-color="accent"></polygon><path fill-rule="evenodd" clip-rule="evenodd" d="M50 0C22.386 0 0 22.386 0 50s22.386 50 50 50 50-22.386 50-50S77.614 0 50 0zM6.91 50c0-9.137 2.852-17.603 7.703-24.575l0.556 0.417-0.336 1.349 1.235 0.338-0.225-1.798 1.011-0.112v-2.36h1.011c0 0 0.178 0.458 0.365 0.938 0.205 0.528 0.422 1.084 0.422 1.084l1.123 1.237c0 0-1.348 0.335-1.797 0.335-0.449 0-0.225 1.798-0.225 1.798l1.572 0.561 1.016-1.876 2.355-2.617 1.123-3.482 2.135-2.024-1.236-0.896 1.349-0.899 0.112-1.237-3.932 1.123-0.124-0.148c2.141-1.819 4.46-3.433 6.931-4.81l1.844 0.803-1.235 2.36h-2.473l-0.45 2.133h2.023l2.921-1.798 2.023-2.021 0.336-1.91-2.921-0.224 2.022-1.349 1.91 0.338-0.336 2.021 2.584-1.575 0.45 1.237 0.562 1.798-1.461 1.798-1.573 1.46-2.36-0.338 1.124 2.359-2.135-0.337-3.595 3.708 0.899 1.237 2.921-0.226 2.472-0.788 3.147-0.335 1.46-0.337c0 0 0-0.899-0.113-1.46-0.111-0.562 1.124 0.111 1.124 0.111l1.349-0.785 1.011-3.147 3.707-1.687-0.561-0.897 0.899-1.125-2.921-0.45 0.786-1.123-3.708-1.237h-1.91l0.674-1.684 0.786-0.788-0.063-0.063C43.4 7.304 46.653 6.91 50 6.91c5.216 0 10.214 0.927 14.841 2.625L64.729 9.8l-1.871-0.125V10.8l0.749 0.499v0.998l0.623 0.873-2.245-1.372-1.497 0.749 0.749 1.749 0.374 1.996 0.998 1.125 2.37 0.374-0.499 0.998-0.499 1.5 2.123 1.372-0.125 0.624-3.994-3.371-0.249 1.25 1.746 1.747 0.998 0.374-2.245 0.499-0.25 1.125-1.621-1.625-1.001-2.121-0.374-2.123-1.001 1.248 0.751 2.996 1.248 0.876-0.499 2.869-0.749-0.375 0.125 1.5-1.125-0.125-1.123-1.625h-1.372l-1.998-0.25-1.999 0.125-1.871 1.5-1.249 2.121-2.622 1.998-0.25 1.123v1.375l0.624 1.372 1.249-0.998 0.374 0.748 0.625 1.123 0.125 0.252 0.624 0.749L50 35.894l-0.125-2.747 1.372-1.749c0 0 0.07-0.296 0.148-0.637 0.106-0.455 0.227-0.985 0.227-0.985l0.498-1.375 0.876 0.125-0.249 1.125-0.502 2.495 2.375-0.25 0.874 0.25-1.874 0.501 0.249 1.248-2.123 1.372 0.125 1.375L50 37.142l-0.374 0.998-1.499-0.499h-0.999v-2.123l-1.124 0.377v1.123l-3.121 2.498-1.748 0.624-0.749 0.873-2.498-0.624-0.125 1.123 1.623 0.626-0.125 2.245-4.495-0.125-0.624 0.998-0.624 1.749-0.75 1.5 1.124 1.248 1.249 1.497L39.139 50l0.25-1.497 0.875-0.751 1.498-0.499-0.125-0.998 1.374-0.375 1.997-0.374 1.249 1.497 2.247 1.625 0.999 1.621v0.749l1.247-0.749-0.623-1.122 0.249-1.25-1.123-0.499-0.999-1.372 0.624-1.999L50 45.631l1.622 1.248 0.623 2.248 1.624 1.247 0.377 1.375 0.749-1.624-0.25-0.749 0.374-0.624 2.37-1.998 0.499-2.498 1.001-0.749 1.247 0.125 1.874-1.874 0.125 1.5 2.744 0.873v1.375h-2.245l-3.371 1.746-2.747 1.5 0.749 1.622 2.497 0.499 1.375 0.624 1.497-0.998 0.124 4.246-4.246 0.873-4.49-1.25-1.749 1.375 0.748 0.748-1.375-0.249-4.368-1.624-1.248 0.127-0.999-1.624v-1.998h-2.248l-1.248-0.25-3.996 0.876-3.121-0.252-1.373 0.751-0.874 0.125-0.5 1.621-2.871 1.999-3.996 2.996-0.25 3.869-1.124 2.498 0.125 1.496 0.999 1.749 2.872 4.868 2.996 1.374 4.994 0.375-0.25-2.124-1.124-0.623 0.499-1.123 0.875 0.998 0.873 2.622 3.746 0.25 1.498 1.496 2.122 0.876 0.25 3.62 2.248 2.872 2.122 3.744-1.872 2.248 1.912 2.975C25.354 92.215 6.91 73.266 6.91 50zM64.765 90.492l5.209-3.787-1.871-4.621 5.993-7.863 1.871-4.995 0.873-2.747-3.118 1.5-1.874 0.374-4.618-2.872-1.374-3.121-1.749-1.749-2.246-4.992 1.871 1.497 3.498 3.87 1.248 1.749 2.494 1.247 0.751 3.246 2.997-1.996 3.62-4.496 1.748-4.618-1.374-1.122-0.749-1.375-0.875 1.624-1.747 1.996-2.497-2.747-0.748-2.12 1.748 0.374 1.747 0.873 2.497-0.873 1.5 0.499 3.991-2.747 2.251 1.25 1.372-0.751 2.985 4.7 1.479-1.41 0.029-1.791 0.124-5.369 0.918-2.544c0.223 1.775 0.351 3.58 0.351 5.416C93.09 68.61 81.291 84.465 64.765 90.492z" fill="#f56607" data-fill-palette-color="accent"></path></svg></g></svg></g><g id="text-0"><path d="M9.755 91.29v0c0.589-1.708 1.445-3.048 2.567-4.02 1.125-0.979 2.419-1.588 3.883-1.828 1.464-0.239 2.995-0.083 4.593 0.468v0c0.352 0.121 0.679 0.252 0.981 0.392 0.298 0.131 0.57 0.286 0.817 0.464v0l-4.218 12.232c2.799 0.93 4.984 1.1 6.554 0.51 1.566-0.598 2.685-1.872 3.358-3.822v0c0.468-1.356 0.622-2.53 0.463-3.522-0.157-0.999-0.52-1.99-1.089-2.974v0l0.839-0.44c1.21 1.326 1.986 2.832 2.328 4.517 0.344 1.679 0.185 3.477-0.476 5.396v0c-0.664 1.925-1.654 3.48-2.972 4.664-1.317 1.184-2.882 1.926-4.695 2.223-1.819 0.296-3.797 0.075-5.934-0.661v0c-2.226-0.768-3.944-1.897-5.154-3.388-1.208-1.497-1.965-3.153-2.269-4.968-0.298-1.813-0.157-3.561 0.424-5.243zM10.865 91.899v0c-0.271 0.787-0.283 1.548-0.036 2.284 0.247 0.736 0.875 1.468 1.883 2.195 1.002 0.725 2.51 1.467 4.525 2.226v0l2.511-7.281c-2.636-1.238-4.649-1.811-6.042-1.718-1.4 0.097-2.347 0.861-2.841 2.294z" fill="#03424c" data-fill-palette-color="primary"></path><path d="M38.995 79.079l-3.664 5.776-0.685-0.435 0.397-1.118c0.221-0.613 0.326-1.151 0.315-1.614-0.011-0.463-0.136-0.992-0.377-1.585v0l-2.999-7.454-10.386-0.014c-0.512 0.012-0.938 0.07-1.277 0.176-0.339 0.105-0.69 0.336-1.051 0.691v0l-0.537 0.524-0.685-0.434 5.755-9.075 0.686 0.434-0.197 0.633c-0.178 0.496-0.155 0.875 0.071 1.138 0.226 0.263 0.606 0.396 1.141 0.399v0l6.028-0.106-2.253-5.599c-0.218-0.515-0.478-0.856-0.781-1.024-0.293-0.17-0.633-0.057-1.02 0.339v0l-0.728 0.656-0.686-0.435 3.544-5.588 0.686 0.435-0.375 0.989c-0.197 0.588-0.272 1.098-0.224 1.528 0.044 0.436 0.183 0.949 0.418 1.538v0l2.657 7.141 10.42-0.06c1.178-0.038 2.211-0.468 3.101-1.29v0l0.651-0.608 0.685 0.434-6.19 9.761-0.686-0.435 0.231-0.611c0.155-0.51 0.122-0.912-0.1-1.205-0.219-0.299-0.596-0.43-1.133-0.394v0l-6.431 0.043 2.506 6.071c0.218 0.515 0.504 0.816 0.856 0.904 0.353 0.088 0.708-0.043 1.067-0.393v0l0.564-0.567z" fill="#03424c" data-fill-palette-color="primary"></path><path d="M65.322 61.543l-7.29 7.058-0.572-0.591 0.281-0.512c0.314-0.502 0.439-0.952 0.374-1.35-0.065-0.398-0.305-0.811-0.72-1.239v0c-0.819-0.846-1.588-1.65-2.307-2.413-0.715-0.758-1.411-1.487-2.089-2.186v0l-8.223-8.494c-0.621-0.642-1.155-1.193-1.602-1.655-0.447-0.462-0.96-0.972-1.54-1.532v0c-0.419-0.433-0.816-0.697-1.193-0.794-0.372-0.092-0.804 0.02-1.297 0.338v0l-0.551 0.35-0.537-0.554 3.236-6.608 0.676-0.046 1.378 0.869c0.483-2.341 1.621-4.38 3.414-6.116v0c1.75-1.694 3.792-2.395 6.127-2.104 2.335 0.291 4.749 1.725 7.243 4.301v0c2.409 2.489 3.706 4.99 3.89 7.504 0.179 2.519-0.727 4.744-2.72 6.673v0c-0.807 0.781-1.633 1.445-2.479 1.991-0.851 0.541-1.692 0.937-2.524 1.187v0l0.896 0.925c0.598 0.617 1.249 1.281 1.956 1.991 0.706 0.71 1.469 1.488 2.287 2.334v0c0.795 0.821 1.654 0.988 2.576 0.501v0l0.739-0.419zM58.649 52.622v0c1.094-1.059 1.481-2.38 1.162-3.964-0.324-1.589-1.65-3.586-3.979-5.992v0c-2.315-2.391-4.233-3.779-5.753-4.162-1.52-0.374-2.827-0.031-3.92 1.027v0c-0.389 0.376-0.753 0.847-1.092 1.411-0.334 0.559-0.618 1.234-0.851 2.024v0l11.3 11.672c1.165-0.45 2.209-1.122 3.133-2.016z" fill="#03424c" data-fill-palette-color="primary"></path><path d="M81.013 36.598l-8.399 5.457-0.442-0.681 0.451-0.498c0.621-0.783 0.627-1.642 0.019-2.578v0c-0.531-0.817-1.06-1.643-1.587-2.479-0.531-0.841-1.061-1.67-1.592-2.487v0l-8.896-13.691c-0.328-0.505-0.66-0.83-0.996-0.974-0.327-0.143-0.77-0.117-1.33 0.077v0l-0.638 0.209-0.448-0.689 5.329-5.617 0.678 0.019 3.162 5.182 11.219 17.265c0.332 0.462 0.687 0.784 1.064 0.967 0.377 0.183 0.833 0.189 1.367 0.018v0l0.596-0.181z" fill="#03424c" data-fill-palette-color="primary"></path><path d="M96.82 30.113v0c-1.965 0.806-3.852 1.1-5.659 0.884-1.807-0.217-3.425-0.917-4.853-2.101-1.426-1.177-2.569-2.815-3.429-4.911v0c-0.86-2.097-1.167-4.077-0.922-5.94 0.239-1.86 0.927-3.499 2.065-4.915 1.14-1.411 2.639-2.497 4.498-3.259v0c1.853-0.76 3.683-1.039 5.492-0.837 1.805 0.211 3.442 0.888 4.913 2.032 1.477 1.142 2.651 2.774 3.521 4.896v0c0.86 2.097 1.198 4.071 1.014 5.923-0.181 1.858-0.836 3.49-1.963 4.896-1.127 1.405-2.686 2.516-4.677 3.332zM96.366 29.006v0c0.951-0.39 1.621-0.968 2.009-1.734 0.382-0.763 0.438-1.847 0.17-3.251-0.265-1.412-0.874-3.283-1.829-5.611v0c-0.968-2.36-1.855-4.142-2.664-5.346-0.802-1.207-1.605-1.945-2.41-2.214-0.814-0.273-1.697-0.215-2.648 0.176v0c-0.958 0.393-1.621 0.968-1.99 1.726-0.372 0.752-0.426 1.842-0.163 3.269 0.257 1.43 0.87 3.325 1.838 5.684v0c0.955 2.328 1.84 4.086 2.655 5.273 0.807 1.183 1.608 1.915 2.403 2.195 0.795 0.281 1.672 0.225 2.629-0.167z" fill="#03424c" data-fill-palette-color="primary"></path><path d="M122.884 22.297l-10.587 1.839-0.139-0.8 0.591-0.329c0.542-0.238 0.89-0.546 1.045-0.923 0.154-0.377 0.183-0.845 0.085-1.406v0l-2.155-12.407c-0.136-0.622-0.331-1.075-0.586-1.361-0.257-0.292-0.678-0.445-1.265-0.46v0l-0.659-0.06-0.132-0.76 6.471-3.658 0.592 0.381 1.027 3.664 0.051 0.289c0.29-0.861 0.699-1.687 1.227-2.479 0.535-0.793 1.146-1.466 1.833-2.018 0.692-0.56 1.419-0.906 2.179-1.037v0c1.073-0.186 1.925-0.043 2.557 0.431 0.638 0.473 1.033 1.146 1.185 2.019v0c0.167 0.96 0.023 1.733-0.432 2.32-0.448 0.586-1.055 0.945-1.821 1.079v0c-1.126 0.196-2.188-0.142-3.183-1.013v0l-0.096-0.076c-0.346-0.29-0.699-0.425-1.058-0.403-0.36 0.021-0.673 0.258-0.938 0.709v0c-0.238 0.33-0.443 0.709-0.616 1.137-0.174 0.422-0.314 0.902-0.419 1.442v0l1.928 11.098c0.093 0.533 0.283 0.957 0.571 1.271 0.281 0.315 0.704 0.496 1.268 0.541v0l1.337 0.17z" fill="#03424c" data-fill-palette-color="primary"></path><path d="M146.401 0.005v0c1.805 0.057 3.339 0.478 4.6 1.262 1.268 0.785 2.233 1.84 2.895 3.168 0.662 1.327 0.966 2.836 0.913 4.527v0c-0.012 0.372-0.04 0.723-0.084 1.053-0.037 0.324-0.104 0.63-0.202 0.917v0l-12.932-0.408c-0.059 2.949 0.425 5.086 1.453 6.411 1.035 1.319 2.583 2.011 4.645 2.076v0c1.433 0.045 2.601-0.155 3.501-0.6 0.907-0.445 1.747-1.085 2.518-1.92v0l0.669 0.67c-0.908 1.548-2.117 2.735-3.625 3.561-1.502 0.826-3.267 1.207-5.295 1.143v0c-2.035-0.064-3.814-0.55-5.335-1.458-1.521-0.908-2.693-2.183-3.514-3.827-0.821-1.65-1.196-3.605-1.124-5.863v0c0.074-2.353 0.644-4.328 1.71-5.926 1.072-1.597 2.431-2.81 4.074-3.638 1.644-0.821 3.355-1.204 5.133-1.148zM146.149 1.246v0c-0.832-0.026-1.563 0.188-2.193 0.642-0.63 0.454-1.143 1.27-1.54 2.449-0.396 1.172-0.658 2.832-0.786 4.98v0l7.698 0.243c0.402-2.884 0.353-4.977-0.147-6.279-0.507-1.309-1.518-1.987-3.032-2.035z" fill="#03424c" data-fill-palette-color="primary"></path><path d="M185.988 22.698v0c-1.757-0.707-3.142-1.607-4.153-2.7v0l-0.579 1.44c-0.321 0.797-0.114 1.434 0.619 1.912v0l6.568 4.175c1.247 0.816 2.314 1.624 3.202 2.426 0.881 0.8 1.471 1.671 1.769 2.616 0.301 0.938 0.21 2.006-0.273 3.205v0c-0.513 1.274-1.409 2.295-2.688 3.064-1.283 0.76-2.877 1.15-4.781 1.171-1.913 0.025-4.091-0.454-6.532-1.437v0c-2.102-0.846-3.683-1.738-4.743-2.675-1.059-0.937-1.717-1.858-1.972-2.763-0.247-0.909-0.21-1.762 0.111-2.559v0c0.384-0.954 1.092-1.781 2.125-2.481 1.037-0.691 2.202-1.148 3.495-1.371v0c-1.374-1.26-1.793-2.556-1.258-3.887v0c0.202-0.502 0.508-0.918 0.918-1.249 0.41-0.331 0.874-0.64 1.391-0.928v0l2.16-1.209c-1.464-1.888-1.72-4.014-0.768-6.38v0c0.783-1.945 2.099-3.239 3.947-3.881 1.851-0.648 4.066-0.453 6.645 0.586v0c2.579 1.038 4.331 2.44 5.254 4.204v0c0.907 0.212 1.789 0.319 2.649 0.322 0.866 0.006 1.719-0.114 2.561-0.358v0l0.396 0.619-0.901 2.24-4.302-1.731c0.42 1.402 0.32 2.874-0.302 4.418v0c-0.758 1.883-2.062 3.148-3.913 3.796-1.851 0.648-4.066 0.453-6.645-0.585zM186.339 21.581v0c1.117 0.45 2.109 0.349 2.977-0.301 0.87-0.656 1.689-1.942 2.459-3.855v0c0.76-1.889 1.052-3.347 0.875-4.374-0.171-1.024-0.79-1.751-1.857-2.181v0c-1.061-0.427-2.019-0.328-2.876 0.298-0.851 0.628-1.661 1.898-2.432 3.812v0c-0.77 1.914-1.086 3.388-0.948 4.421 0.141 1.027 0.742 1.753 1.802 2.18zM176.105 30.675v0c-0.589 1.462-0.565 2.744 0.07 3.846 0.636 1.102 1.964 2.059 3.985 2.873v0c2.234 0.899 4.037 1.202 5.41 0.909 1.366-0.296 2.291-1.043 2.773-2.242v0c0.301-0.747 0.266-1.439-0.105-2.077-0.374-0.647-1.153-1.347-2.337-2.1v0l-6.571-4.275c-0.097-0.068-0.193-0.136-0.29-0.204v0c-0.61 0.374-1.189 0.852-1.737 1.434-0.541 0.584-0.941 1.196-1.198 1.836z" fill="#03424c" data-fill-palette-color="primary"></path><path d="M207.941 42.346l-8.46-5.361 0.434-0.686 0.641 0.202c0.97 0.238 1.754-0.114 2.352-1.057v0c0.521-0.823 1.052-1.648 1.592-2.474 0.544-0.833 1.076-1.661 1.598-2.484v0l8.739-13.791c0.322-0.509 0.479-0.946 0.471-1.312-0.006-0.356-0.214-0.749-0.624-1.176v0l-0.456-0.494 0.44-0.694 7.327 2.505 0.265 0.624-3.394 5.034-11.021 17.391c-0.281 0.494-0.427 0.951-0.436 1.37-0.009 0.419 0.175 0.836 0.553 1.251v0l0.413 0.466z" fill="#03424c" data-fill-palette-color="primary"></path><path d="M220.413 54.017v0c-1.551-1.452-2.604-3.044-3.159-4.778-0.555-1.733-0.592-3.496-0.11-5.287 0.477-1.787 1.49-3.507 3.039-5.162v0c1.549-1.655 3.221-2.758 5.017-3.311 1.791-0.557 3.567-0.613 5.328-0.168 1.757 0.449 3.369 1.36 4.836 2.733v0c1.462 1.368 2.477 2.917 3.047 4.645 0.56 1.728 0.625 3.5 0.197 5.313-0.423 1.818-1.419 3.565-2.986 5.239v0c-1.549 1.655-3.203 2.784-4.964 3.388-1.765 0.609-3.521 0.693-5.268 0.253-1.747-0.44-3.406-1.395-4.977-2.865zM221.232 53.142v0c0.751 0.703 1.555 1.071 2.412 1.105 0.853 0.029 1.862-0.37 3.026-1.198 1.174-0.829 2.621-2.161 4.341-3.999v0c1.743-1.862 2.994-3.411 3.752-4.647 0.763-1.231 1.1-2.269 1.01-3.113-0.09-0.854-0.511-1.632-1.262-2.335v0c-0.756-0.707-1.555-1.071-2.398-1.091-0.838-0.025-1.852 0.379-3.04 1.214-1.193 0.829-2.661 2.175-4.404 4.036v0c-1.72 1.837-2.949 3.374-3.688 4.609-0.74 1.226-1.072 2.259-0.996 3.099 0.076 0.84 0.491 1.613 1.247 2.32z" fill="#03424c" data-fill-palette-color="primary"></path><path d="M237.39 71.305l-1.791 0.397-3.4-6.204 0.679-0.445 0.316 0.315c0.827 0.793 1.733 0.866 2.717 0.221v0l18.687-12.252c0.481-0.315 0.795-0.651 0.942-1.006 0.142-0.352 0.119-0.806-0.068-1.362v0l-0.205-0.534 0.654-0.428 5.573 5.131-0.017 0.678-5.169 3.183-3.777 2.476c2.271 0.946 4.049 2.401 5.337 4.364v0c1.32 2.014 1.675 4.164 1.062 6.451-0.607 2.283-2.443 4.429-5.51 6.439v0c-2.037 1.335-3.966 2.119-5.788 2.351-1.818 0.237-3.441 0.02-4.869-0.654-1.434-0.67-2.6-1.689-3.498-3.058v0c-0.597-0.911-1.072-1.894-1.424-2.949-0.348-1.05-0.499-2.088-0.451-3.114zM239.737 74.644v0c0.519 0.792 1.205 1.338 2.056 1.637 0.846 0.303 1.93 0.26 3.251-0.129 1.322-0.389 2.942-1.213 4.86-2.471v0c1.918-1.257 3.312-2.394 4.184-3.41 0.877-1.02 1.337-1.965 1.381-2.835 0.048-0.865-0.195-1.704-0.73-2.519v0c-0.708-1.081-1.743-1.98-3.103-2.697v0l-13.12 8.601c0.046 1.378 0.452 2.652 1.22 3.823z" fill="#03424c" data-fill-palette-color="primary"></path><path d="M270.743 92.703v0c0.62 1.696 0.802 3.276 0.544 4.739-0.255 1.469-0.875 2.758-1.86 3.867-0.985 1.109-2.271 1.954-3.859 2.535v0c-0.349 0.128-0.686 0.233-1.009 0.315-0.314 0.086-0.623 0.138-0.926 0.155v0l-4.444-12.151c-2.759 1.045-4.561 2.291-5.407 3.738-0.838 1.452-0.902 3.146-0.194 5.085v0c0.493 1.347 1.113 2.355 1.863 3.025 0.751 0.676 1.658 1.216 2.72 1.619v0l-0.373 0.872c-1.775-0.266-3.327-0.944-4.655-2.036-1.326-1.085-2.338-2.581-3.035-4.488v0c-0.699-1.912-0.912-3.744-0.637-5.493 0.275-1.75 1.022-3.313 2.241-4.688 1.225-1.377 2.899-2.454 5.021-3.229v0c2.211-0.809 4.256-1.016 6.136-0.624 1.882 0.399 3.514 1.207 4.895 2.424 1.375 1.219 2.368 2.664 2.979 4.335zM269.497 92.932v0c-0.286-0.781-0.757-1.38-1.413-1.796-0.656-0.416-1.605-0.587-2.846-0.515-1.235 0.07-2.873 0.446-4.915 1.127v0l2.646 7.234c2.826-0.702 4.75-1.528 5.771-2.478 1.025-0.958 1.278-2.149 0.757-3.572z" fill="#03424c" data-fill-palette-color="primary"></path><path d="M31.396 180.2v0c0.635 1.813 0.805 3.496 0.509 5.047-0.293 1.558-0.971 2.917-2.035 4.078-1.057 1.158-2.434 2.035-4.132 2.629v0c-0.37 0.13-0.726 0.24-1.067 0.331-0.343 0.084-0.673 0.135-0.99 0.153v0l-4.543-12.978c-2.945 1.067-4.877 2.367-5.796 3.9-0.914 1.524-1.009 3.321-0.284 5.389v0c0.503 1.437 1.147 2.519 1.932 3.248 0.783 0.722 1.737 1.306 2.86 1.751v0l-0.4 0.914c-1.885-0.308-3.525-1.049-4.918-2.224-1.391-1.169-2.444-2.775-3.16-4.818v0c-0.713-2.037-0.91-3.982-0.591-5.835 0.319-1.853 1.136-3.501 2.451-4.944 1.313-1.449 3.106-2.571 5.38-3.367v0c2.356-0.825 4.53-1.013 6.522-0.563 1.999 0.447 3.719 1.328 5.162 2.644 1.443 1.316 2.476 2.864 3.1 4.645zM30.077 180.425v0c-0.293-0.836-0.786-1.477-1.48-1.922-0.689-0.454-1.694-0.651-3.013-0.59-1.315 0.052-3.062 0.427-5.24 1.125v0l2.703 7.719c3.015-0.704 5.072-1.554 6.172-2.548 1.104-1.003 1.39-2.264 0.858-3.784z" fill="#03424c" data-fill-palette-color="primary"></path><path d="M21.343 210.976l-3.926-6.113 0.726-0.466 0.9 0.893c0.493 0.479 0.965 0.82 1.415 1.021 0.453 0.192 1.017 0.307 1.694 0.347v0l8.527 0.434 4.659-9.986c0.217-0.501 0.349-0.94 0.397-1.316 0.048-0.376-0.016-0.814-0.191-1.312v0l-0.269-0.756 0.734-0.472 6.169 9.607-0.735 0.471-0.521-0.473c-0.399-0.395-0.775-0.543-1.129-0.445-0.349 0.095-0.646 0.403-0.892 0.922v0l-2.597 5.853 6.403 0.338c0.589 0.016 1.034-0.081 1.334-0.29 0.3-0.209 0.344-0.591 0.132-1.146v0l-0.312-0.993 0.734-0.472 3.8 5.918-0.734 0.471-0.78-0.801c-0.475-0.451-0.933-0.752-1.375-0.902-0.436-0.154-0.993-0.251-1.67-0.291v0l-8.06-0.625-4.609 10.062c-0.491 1.151-0.539 2.34-0.146 3.567v0l0.297 0.895-0.726 0.466-6.634-10.332 0.726-0.467 0.487 0.496c0.421 0.381 0.824 0.532 1.208 0.454 0.381-0.084 0.673-0.392 0.877-0.925v0l2.846-6.217-6.978-0.294c-0.593-0.021-1.01 0.118-1.252 0.417-0.242 0.3-0.273 0.702-0.094 1.206v0l0.291 0.79z" fill="#03424c" data-fill-palette-color="primary"></path><path d="M37.023 247.33l-7.792-7.444 0.595-0.624 0.56 0.282c0.548 0.308 1.029 0.421 1.443 0.34 0.419-0.086 0.851-0.362 1.294-0.826v0c0.86-0.9 1.678-1.747 2.454-2.54 0.781-0.798 1.529-1.571 2.244-2.319v0l8.671-9.076c0.65-0.68 1.213-1.269 1.689-1.769 0.472-0.494 0.993-1.059 1.562-1.693v0c0.439-0.46 0.702-0.892 0.789-1.296 0.091-0.399-0.041-0.853-0.397-1.362v0l-0.408-0.572 0.568-0.594 7.149 3.167 0.081 0.709-0.871 1.498c2.507 0.421 4.717 1.545 6.63 3.372v0c1.874 1.79 2.702 3.929 2.487 6.418-0.211 2.493-1.63 5.114-4.256 7.863v0c-2.547 2.666-5.149 4.147-7.808 4.441-2.663 0.3-5.063-0.571-7.201-2.613v0c-0.856-0.818-1.588-1.667-2.197-2.548-0.618-0.881-1.076-1.758-1.374-2.631v0l-0.946 0.991c-0.631 0.66-1.308 1.379-2.032 2.156-0.729 0.782-1.523 1.623-2.383 2.524v0c-0.841 0.88-0.98 1.8-0.418 2.758v0l0.463 0.765zM46.219 239.893v0c1.164 1.112 2.581 1.465 4.252 1.058 1.67-0.397 3.737-1.885 6.2-4.462v0c2.439-2.553 3.827-4.647 4.163-6.282 0.341-1.63-0.073-3.003-1.243-4.12v0c-0.416-0.397-0.929-0.761-1.539-1.092-0.61-0.331-1.339-0.606-2.187-0.826v0l-11.923 12.481c0.525 1.213 1.285 2.294 2.277 3.243z" fill="#03424c" data-fill-palette-color="primary"></path><path d="M70.348 260.037l-8.955-5.755 0.466-0.726 0.679 0.22c1.025 0.257 1.858-0.113 2.498-1.109v0c0.56-0.871 1.133-1.745 1.721-2.622 0.578-0.875 1.147-1.748 1.707-2.618v0l9.381-14.598c0.344-0.535 0.511-0.995 0.501-1.379-0.001-0.387-0.217-0.807-0.649-1.261v0l-0.482-0.527 0.472-0.734 7.758 2.718 0.276 0.66-3.632 5.313-11.829 18.405c-0.301 0.53-0.457 1.017-0.468 1.461-0.017 0.439 0.177 0.882 0.583 1.327v0l0.439 0.499z" fill="#03424c" data-fill-palette-color="primary"></path><path d="M88.756 269.095v0c-2.087-0.848-3.734-2.025-4.94-3.531-1.21-1.514-1.919-3.248-2.125-5.201-0.21-1.962 0.137-4.056 1.041-6.28v0c0.907-2.231 2.147-3.962 3.72-5.192 1.57-1.239 3.312-1.969 5.228-2.191 1.909-0.224 3.851 0.065 5.826 0.867v0c1.974 0.802 3.57 1.951 4.788 3.447 1.218 1.495 1.96 3.228 2.225 5.198 0.268 1.964-0.056 4.074-0.974 6.33v0c-0.904 2.225-2.116 3.974-3.634 5.248-1.518 1.274-3.229 2.025-5.132 2.252-1.897 0.229-3.905-0.086-6.023-0.947zM89.237 267.91v0c1.015 0.413 1.955 0.473 2.819 0.182 0.855-0.288 1.704-1.067 2.549-2.338 0.842-1.264 1.768-3.137 2.776-5.619v0c1.021-2.513 1.674-4.523 1.958-6.029 0.286-1.512 0.225-2.673-0.185-3.481-0.415-0.811-1.13-1.423-2.145-1.836v0c-1.015-0.413-1.945-0.469-2.79-0.17-0.845 0.299-1.698 1.088-2.561 2.366-0.86 1.272-1.801 3.164-2.822 5.677v0c-1.009 2.482-1.646 4.472-1.912 5.971-0.268 1.505-0.203 2.656 0.196 3.453 0.396 0.804 1.102 1.412 2.117 1.824z" fill="#03424c" data-fill-palette-color="primary"></path><path d="M119.831 276.967l-11.253-1.921 0.145-0.851 0.72-0.114c0.625-0.044 1.082-0.227 1.37-0.548 0.282-0.323 0.474-0.784 0.576-1.384v0l2.252-13.194c0.086-0.665 0.051-1.185-0.104-1.562-0.148-0.382-0.511-0.684-1.091-0.907v0l-0.649-0.296 0.138-0.81 7.788-1.357 0.456 0.582-0.276 4.029-0.054 0.32c0.597-0.763 1.3-1.446 2.11-2.048 0.816-0.602 1.667-1.061 2.551-1.377 0.89-0.308 1.738-0.393 2.545-0.255v0c1.14 0.195 1.946 0.641 2.417 1.339 0.464 0.697 0.617 1.509 0.459 2.436v0c-0.174 1.02-0.59 1.745-1.246 2.176-0.663 0.429-1.399 0.575-2.206 0.436v0c-1.2-0.205-2.145-0.922-2.834-2.151v0l-0.075-0.106c-0.239-0.411-0.541-0.672-0.906-0.782-0.365-0.11-0.764 0.014-1.196 0.372v0c-0.351 0.249-0.688 0.555-1.011 0.919-0.33 0.362-0.644 0.796-0.943 1.301v0l-2.013 11.793c-0.097 0.567-0.057 1.057 0.12 1.472 0.175 0.421 0.534 0.753 1.075 0.997v0l1.28 0.64z" fill="#03424c" data-fill-palette-color="primary"></path><path d="M146.037 255.589v0c1.92-0.064 3.576 0.276 4.969 1.021 1.399 0.745 2.494 1.798 3.284 3.159 0.79 1.354 1.215 2.931 1.275 4.73v0c0.013 0.392 0.012 0.764-0.003 1.117-0.022 0.353-0.072 0.683-0.149 0.989v0l-13.743 0.462c0.139 3.129 0.803 5.361 1.992 6.695 1.182 1.328 2.868 1.955 5.058 1.881v0c1.521-0.051 2.747-0.343 3.677-0.875 0.923-0.532 1.765-1.267 2.525-2.206v0l0.753 0.655c-0.857 1.707-2.054 3.051-3.591 4.029-1.531 0.979-3.378 1.504-5.542 1.577v0c-2.157 0.072-4.072-0.32-5.745-1.178-1.674-0.858-3.002-2.13-3.987-3.816-0.991-1.686-1.526-3.733-1.607-6.139v0c-0.084-2.495 0.386-4.626 1.41-6.393 1.024-1.774 2.378-3.153 4.065-4.137 1.686-0.984 3.473-1.508 5.359-1.571zM145.858 256.915v0c-0.886 0.03-1.645 0.309-2.277 0.838-0.639 0.522-1.127 1.422-1.463 2.699-0.343 1.271-0.507 3.049-0.491 5.337v0l8.175-0.275c0.228-3.087 0.032-5.304-0.589-6.651-0.628-1.353-1.746-2.003-3.355-1.948z" fill="#03424c" data-fill-palette-color="primary"></path><path d="M187.804 261.357v0c-1.866 0.744-3.587 1.069-5.16 0.975v0l0.608 1.527c0.338 0.848 0.965 1.188 1.881 1.02v0l8.107-1.614c1.552-0.291 2.962-0.452 4.231-0.485 1.265-0.024 2.358 0.215 3.278 0.715 0.92 0.5 1.633 1.385 2.139 2.653v0c0.541 1.357 0.6 2.802 0.176 4.333-0.418 1.528-1.353 3.001-2.806 4.417-1.455 1.41-3.484 2.634-6.085 3.671v0c-2.231 0.889-4.096 1.363-5.595 1.421-1.505 0.061-2.687-0.164-3.545-0.673-0.859-0.51-1.457-1.189-1.796-2.037v0c-0.406-1.018-0.463-2.175-0.17-3.472 0.286-1.294 0.843-2.499 1.672-3.616v0c-1.98 0.039-3.252-0.648-3.816-2.062v0c-0.215-0.54-0.288-1.087-0.216-1.64 0.077-0.555 0.208-1.132 0.392-1.729v0l0.768-2.513c-2.51-0.376-4.266-1.824-5.271-4.344v0c-0.822-2.061-0.758-4.02 0.192-5.877 0.952-1.851 2.798-3.322 5.538-4.414v0c2.746-1.095 5.12-1.305 7.122-0.632v0c0.85-0.499 1.608-1.063 2.275-1.693 0.669-0.624 1.235-1.341 1.698-2.152v0l0.763 0.188 0.947 2.375-4.581 1.826c1.356 0.77 2.361 1.976 3.014 3.616v0c0.802 2.011 0.726 3.942-0.226 5.792-0.943 1.854-2.788 3.329-5.534 4.424zM187.261 260.24v0c1.188-0.473 1.875-1.279 2.063-2.416 0.187-1.138-0.125-2.725-0.937-4.762v0c-0.802-2.011-1.647-3.346-2.535-4.003-0.885-0.667-1.893-0.775-3.024-0.324v0c-1.131 0.451-1.795 1.233-1.993 2.345-0.197 1.113 0.11 2.687 0.922 4.724v0c0.812 2.036 1.648 3.396 2.51 4.079 0.865 0.689 1.863 0.809 2.994 0.358zM186.054 274.726v0c0.621 1.559 1.583 2.53 2.887 2.913 1.295 0.38 3.017 0.141 5.166-0.715v0c2.375-0.947 3.981-2.035 4.817-3.264 0.839-1.238 1.005-2.494 0.496-3.77v0c-0.316-0.792-0.856-1.298-1.62-1.517-0.758-0.222-1.867-0.188-3.325 0.102v0l-8.178 1.544c-0.126 0.014-0.25 0.03-0.373 0.051v0c-0.204 0.73-0.301 1.518-0.291 2.366 0.01 0.848 0.151 1.611 0.421 2.29z" fill="#03424c" data-fill-palette-color="primary"></path><path d="M218.989 254.113l-9.023 5.646-0.458-0.731 0.488-0.521c0.669-0.818 0.69-1.729 0.062-2.732v0c-0.549-0.877-1.095-1.769-1.637-2.674-0.545-0.896-1.092-1.783-1.641-2.66v0l-9.205-14.71c-0.337-0.539-0.682-0.886-1.034-1.041-0.35-0.164-0.823-0.148-1.418 0.049v0l-0.682 0.212-0.463-0.74 5.767-5.859 0.714 0.032 3.258 5.55 11.606 18.547c0.352 0.498 0.725 0.847 1.121 1.046 0.39 0.203 0.873 0.216 1.449 0.039v0l0.639-0.184z" fill="#03424c" data-fill-palette-color="primary"></path><path d="M235.03 241.315v0c-1.656 1.527-3.423 2.515-5.298 2.966-1.885 0.45-3.756 0.352-5.611-0.293-1.865-0.646-3.611-1.851-5.239-3.618v0c-1.632-1.771-2.67-3.63-3.112-5.577-0.452-1.948-0.37-3.836 0.245-5.663 0.61-1.823 1.699-3.457 3.266-4.901v0c1.567-1.444 3.286-2.399 5.158-2.864 1.872-0.465 3.755-0.398 5.65 0.201 1.891 0.594 3.662 1.786 5.313 3.578v0c1.628 1.766 2.695 3.607 3.2 5.523 0.506 1.916 0.456 3.784-0.149 5.603-0.601 1.814-1.741 3.496-3.423 5.045zM234.164 240.375v0c0.806-0.743 1.261-1.567 1.364-2.472 0.104-0.896-0.239-1.997-1.029-3.302-0.785-1.301-2.085-2.936-3.9-4.906v0c-1.839-1.995-3.379-3.441-4.621-4.339-1.246-0.903-2.322-1.342-3.228-1.317-0.911 0.03-1.769 0.416-2.575 1.159v0c-0.806 0.743-1.253 1.56-1.342 2.452-0.089 0.892 0.261 2 1.049 3.325 0.784 1.32 2.095 2.977 3.934 4.971v0c1.816 1.97 3.345 3.394 4.587 4.274 1.247 0.884 2.316 1.315 3.208 1.294 0.896-0.016 1.747-0.396 2.553-1.139z" fill="#03424c" data-fill-palette-color="primary"></path><path d="M252.536 218.137l1.13 1.58-4.636 5.91-0.719-0.477 0.177-0.431c0.428-1.145 0.124-2.062-0.912-2.751v0l-19.773-13.149c-0.507-0.337-0.965-0.504-1.374-0.499-0.403 0.008-0.838 0.222-1.305 0.643v0l-0.436 0.417-0.685-0.455 2.691-7.582 0.669-0.274 5.256 3.714 3.997 2.658c-0.022-2.606 0.658-4.949 2.041-7.027v0c1.416-2.129 3.369-3.374 5.858-3.733 2.48-0.358 5.342 0.542 8.587 2.7v0c2.158 1.435 3.727 2.99 4.708 4.666 0.987 1.68 1.454 3.36 1.402 5.039-0.062 1.681-0.572 3.243-1.531 4.685v0c-0.641 0.963-1.404 1.837-2.291 2.62-0.887 0.783-1.838 1.365-2.854 1.746zM254.817 214.45v0c0.558-0.839 0.808-1.734 0.748-2.683-0.061-0.959-0.557-2.003-1.487-3.134-0.93-1.13-2.409-2.37-4.437-3.718v0c-2.028-1.349-3.721-2.235-5.08-2.659-1.361-0.434-2.477-0.49-3.35-0.168-0.868 0.316-1.589 0.905-2.162 1.767v0c-0.757 1.138-1.203 2.523-1.338 4.156v0l13.884 9.232c1.324-0.623 2.398-1.554 3.222-2.793z" fill="#03424c" data-fill-palette-color="primary"></path><path d="M249.29 178.289v0c0.67-1.801 1.615-3.203 2.834-4.208 1.221-1.011 2.611-1.623 4.17-1.837 1.553-0.216 3.173-0.01 4.859 0.618v0c0.368 0.137 0.712 0.279 1.032 0.428 0.318 0.154 0.604 0.326 0.859 0.514v0l-4.797 12.886c2.947 1.061 5.264 1.296 6.949 0.704 1.677-0.588 2.898-1.91 3.663-3.964v0c0.531-1.426 0.727-2.671 0.589-3.733-0.141-1.056-0.501-2.114-1.082-3.175v0l0.892-0.447c1.254 1.441 2.041 3.059 2.362 4.853 0.323 1.788 0.107 3.696-0.647 5.725v0c-0.753 2.022-1.844 3.645-3.274 4.867-1.429 1.222-3.111 1.967-5.045 2.236-1.936 0.275-4.033-0.007-6.289-0.847v0c-2.339-0.871-4.132-2.116-5.378-3.735-1.252-1.621-2.012-3.398-2.281-5.332-0.269-1.934-0.074-3.785 0.584-5.553zM250.449 178.958v0c-0.309 0.831-0.339 1.639-0.091 2.424 0.24 0.79 0.887 1.583 1.941 2.379 1.045 0.8 2.628 1.628 4.749 2.483v0l2.854-7.665c-2.769-1.385-4.894-2.046-6.376-1.983-1.49 0.066-2.516 0.854-3.077 2.362z" fill="#03424c" data-fill-palette-color="primary"></path><path d="M0.61 139.125c0-6.367 5.161-11.528 11.528-11.529 6.367 0 11.528 5.161 11.528 11.529 0 6.367-5.161 11.528-11.528 11.528-6.367 0-11.528-5.161-11.528-11.528z" fill="#03424c" data-fill-palette-color="primary"></path><path d="M256.334 139.125c0-6.367 5.161-11.528 11.528-11.529 6.367 0 11.528 5.161 11.528 11.529 0 6.367-5.161 11.528-11.528 11.528-6.367 0-11.528-5.161-11.528-11.528z" fill="#03424c" data-fill-palette-color="primary"></path></g><g id="text-1"></g></svg></g></svg></g></svg></g><g></g></svg></g><defs></defs></svg><rect width="280" height="280" fill="none" stroke="none" visibility="hidden"></rect></g></svg></g></svg>